<?xml version="1.0" encoding="UTF-8"?>
<svg width="44px" height="31px" viewBox="0 0 44 31" version="1.1" xmlns="http://www.w3.org/2000/svg" xmlns:xlink="http://www.w3.org/1999/xlink">
    <!-- Generator: sketchtool 51.2 (57519) - http://www.bohemiancoding.com/sketch -->
    <title>E638637A-54E1-44C1-9976-31F5D0DF1C93</title>
    <desc>Created with sketchtool.</desc>
    <defs></defs>
    <g id="WEB" stroke="none" stroke-width="1" fill="none" fill-rule="evenodd">
        <g id="01-Home---Lanches" transform="translate(-1346.000000, -112.000000)" fill="#FFFFFF">
            <g id="btn_checkout" transform="translate(1143.000000, 96.000000)">
                <g id="Group-122" transform="translate(189.000000, 0.000000)">
                    <path d="M54.9352901,27.9125746 L33.1578254,27.9125746 C33.1578254,27.9125746 31.869938,28.204631 31.869938,29.6192789 C31.869938,31.0359549 33.1578254,31.4476732 33.1578254,31.4476732 L52.6830085,31.4476732 L51.585769,35.1602366 L32.3952338,35.1602366 C32.3952338,35.1602366 31.1955718,35.4309972 31.1955718,36.7462648 C31.1955718,38.068631 32.3952338,38.452969 32.3952338,38.452969 L50.5737127,38.452969 L50.6142761,38.452969 L49.5849803,41.9251944 L29.7707831,41.9251944 L28.4555155,31.4456451 L28.0285859,27.9125746 C28.0285859,27.9125746 27.645262,24.6482366 27.429262,23.3015324 C27.213262,21.9457014 23.8282479,20.2521803 16.5501634,16.8215324 C14.8383887,16.1025465 13.4065014,19.2340394 16.5501634,20.8728 L22.2888676,23.5530254 C22.2888676,23.5530254 23.6244169,24.3288 23.7390085,25.3682366 C23.8536,26.4137577 26.181938,43.6765183 26.181938,43.6765183 C26.181938,43.6765183 26.2752338,46.0809127 28.4585577,46.0809127 L50.3566986,46.0809127 C52.1901634,46.0809127 52.546107,44.165307 52.546107,44.165307 L56.8863887,31.276293 C56.8863887,31.276293 58.173262,27.9125746 54.9352901,27.9125746" id="Fill-120"></path>
                </g>
            </g>
        </g>
    </g>
</svg>